<?xml version="1.0" encoding="UTF-8"?>
<svg width="118px" height="190px" viewBox="0 0 118 190" version="1.1" xmlns="http://www.w3.org/2000/svg" xmlns:xlink="http://www.w3.org/1999/xlink">
    <!-- Generator: Sketch 55.2 (78181) - https://sketchapp.com -->
    <title>foliage_text-image_right2</title>
    <desc>Created with Sketch.</desc>
    <g id="foliage_text-image_right2" stroke="none" stroke-width="1" fill="none" fill-rule="evenodd">
        <path d="M135.338842,176.101652 C136.062425,175.825879 136.760878,175.515312 137.419383,175.148044 C139.860105,173.784642 149.737038,169.665441 155.803404,161.40191 C165.43227,148.283353 169.764744,137.489539 168.1391,138.035286 C165.139744,139.041085 142.642966,153.316858 136.757012,162.369693 C135.857528,163.753714 128.298249,174.919307 127.887811,177.111317 C126.772476,174.634513 125.648765,172.161575 124.508301,169.69508 C122.786651,165.967632 121.030208,162.256291 119.246703,158.556549 C122.034074,157.752425 128.760878,155.744049 131.316935,154.365183 C134.5766,152.606163 146.450311,144.697657 154.021832,133.256291 C166.041806,115.09392 170.503146,83.2885079 168.360105,81.6493326 C168.171316,81.5050027 167.958043,81.5423739 167.715131,81.7382502 C166.015388,83.1061625 162.860105,92.1995904 156.265388,100.495338 C154.74026,102.413508 135.718352,121.108096 135.514744,121.308482 C133.271187,123.521111 127.715775,129.246626 127.479306,129.54173 C127.458043,129.568791 127.436136,129.595209 127.414873,129.621626 C127.173249,129.92575 122.559203,137.838121 121.295672,141.722786 C121.258945,141.834255 121.222863,141.946369 121.18678,142.058482 C121.110749,142.298173 121.036651,142.537219 120.963198,142.776266 C119.324022,148.131291 118.545672,153.285286 118.213198,156.42124 C114.53343,148.846498 110.727373,141.331678 106.796316,133.88258 C108.625569,133.033998 115.415517,129.841987 117.827244,128.094565 C120.624925,126.068147 130.776986,117.390312 137.083043,106.338766 C147.093352,88.7949512 150.151986,60.6673739 148.239615,59.5887656 C147.606883,59.2318069 146.747347,61.140312 145.361394,64.2337399 C143.789873,67.7382502 136.929693,79.4470131 135.909718,80.7182759 C135.861394,80.778843 135.81178,80.83941 135.762167,80.9012656 C135.180337,81.6248481 127.055981,91.3207244 125.899409,92.6860594 C125.754435,92.8568069 125.609461,93.0275543 125.464486,93.198946 C121.978662,97.3142811 114.027631,106.995338 113.828533,107.286575 C113.811136,107.312992 113.168739,108.302683 113.161007,108.31557 C111.166806,111.537219 109.75379,115.213121 108.752502,118.761446 C108.724151,118.862606 108.695156,118.963121 108.66745,119.064281 C108.607528,119.283353 108.548249,119.501781 108.490904,119.720209 C106.996703,125.366472 106.502502,130.600364 106.37428,133.0849 C105.894899,132.178327 105.41745,131.271111 104.934203,130.367116 C102.050182,124.968276 99.098507,119.606807 96.0881977,114.28142 C97.9180946,112.884513 102.486394,109.348431 104.164229,107.601008 C106.282785,105.393534 113.882656,96.3619615 118.234461,86.3793584 C125.142321,70.5333533 125.766677,48.1087399 124.157141,47.71441 C124.121703,47.7060337 124.086265,47.7053893 124.049538,47.7118326 C124.014744,47.7189203 123.978017,47.7337399 123.941935,47.7569357 C123.868481,47.8013945 123.794383,47.8761368 123.718352,47.9798739 C123.526986,48.2388945 123.323378,48.6744615 123.093997,49.2601574 C122.956754,49.6113172 122.811136,50.0159564 122.653919,50.4689203 C122.338198,51.3735594 110.304693,75.327812 109.898765,75.9656986 C109.492837,76.6029409 106.753146,80.8993326 105.789873,82.4154409 C105.575955,82.7524254 105.362038,83.08941 105.148765,83.4257502 C105.041806,83.5945646 104.934847,83.7620904 104.828533,83.9302605 C103.336909,86.2833533 96.8272441,99.5037141 96.2544348,102.473431 C96.2376822,102.558482 96.221574,102.643534 96.2054657,102.727941 C96.1713163,102.911575 96.1378111,103.09392 96.1062389,103.276266 C95.4238936,107.128714 95.2628111,110.61325 95.2595895,112.819436 C92.2492802,107.520467 89.1809812,102.25758 86.0488936,97.0365749 C87.1049503,95.8580955 90.9709297,91.5062914 92.2428369,89.5494615 C93.7209297,87.2762656 98.8581719,78.142245 101.086265,68.6944357 C104.622347,53.6957244 101.8266,33.9334821 100.396832,33.8452089 C99.3871668,33.7827089 92.0746668,61.7930182 91.8626822,62.3162141 C91.7589451,62.5733017 90.0334297,66.8510079 89.352373,68.5507502 C89.3085585,68.6609306 89.2634554,68.7717553 89.219641,68.8819357 C88.3246668,71.1171161 87.4496668,73.3226574 86.655208,75.3703378 C86.5553369,75.6280698 86.1745379,76.7350285 86.094641,76.9946935 C86.0875534,77.0185337 86.0804657,77.0423739 86.0727338,77.0662141 C85.9921925,77.3323223 85.9155173,77.5997192 85.8433523,77.8684048 C85.840775,77.8800027 84.7885843,83.6242038 84.7409039,86.3194357 C84.7396152,86.396111 84.7376822,86.4727863 84.7370379,86.5488172 C84.7344606,86.7150543 84.7338163,86.8812914 84.7331719,87.0462399 C84.721574,90.9541007 85.2009554,94.3516522 85.541806,96.1970131 C84.7473472,94.8774254 83.9515998,93.5597708 83.1500534,92.2446935 C80.2080431,87.4218842 77.213842,82.6351574 74.1706719,77.8851574 C74.9380688,76.7543584 78.1223472,72.0217553 79.0952853,69.9257502 C80.2048214,67.5365749 83.9213163,57.9515234 84.9187389,48.0842553 C86.5018575,32.4218842 81.7106204,11.9006213 80.3813678,11.8310337 C80.0585585,11.8136368 79.8684812,14.7492038 79.8594606,15.0617038 C79.8549503,15.2189203 77.4451565,34.5488172 76.0662905,40.1042295 C75.9851049,40.4302605 75.9026307,40.7601574 75.8201565,41.0919873 C74.6655173,45.7388945 73.3890998,50.8471419 72.3536616,55.2569357 C72.289873,55.5281986 72.1680946,56.1216265 72.16294,56.1454667 C72.1101049,56.4141522 72.0624245,56.6847708 72.0186101,56.956678 C72.0140998,56.9818069 72.0102338,57.0056471 72.0057235,57.0307759 C71.9612647,57.3097708 71.5553369,63.8729151 71.8124245,66.6783275 C71.8201565,66.7601574 71.8272441,66.841343 71.8349761,66.9218842 C71.8517286,67.0932759 71.8691255,67.2646677 71.8865224,67.4347708 C72.3330431,71.6854151 73.2106204,75.3490749 73.7260843,77.1957244 C72.9573987,75.9985594 72.1874245,74.8007502 71.4122956,73.6087399 C68.5218317,69.1609306 65.6197699,64.6506213 62.5366513,60.331678 C63.1468317,58.8271677 65.1152596,53.9102863 65.6584297,51.7872192 C66.3040482,49.2646677 68.276342,39.3323223 67.9122956,29.829745 C67.3356204,14.7446935 60.7711874,-3.27012612 59.6390998,-2.99693024 C59.338842,-2.9247653 59.3826565,-1.9292756 59.5488936,-0.264971481 C59.7525018,1.78013161 60.1397441,4.83747697 60.2988936,8.43348213 C60.3555946,9.71698728 59.4206719,24.9154409 59.2724761,26.5977863 C58.8878111,30.9721419 58.0849761,41.4830955 58.0843317,41.5062914 C58.0804657,41.7801316 58.0843317,42.3458533 58.0843317,42.3555182 C58.1217029,45.2002347 58.5405173,48.0365749 59.1017286,50.6022966 C59.1171925,50.6751058 59.1333008,50.7485594 59.149409,50.8207244 C59.1848472,50.9798739 59.2202853,51.136446 59.2570121,51.2917295 C60.0173214,54.5700801 60.9870379,57.3729151 61.6680946,59.1267811 C60.9921925,58.198946 60.3059812,57.2820646 59.6101049,56.3774254 C59.661007,56.3948223 59.6906462,56.4044873 59.6906462,56.4044873 C59.2434812,55.0919873 54.2956719,45.5236883 54.2924503,45.519178 C54.1442544,45.2859306 53.9928369,45.0513945 53.8394864,44.8168584 C53.8021152,44.7601574 53.7666771,44.7041007 53.7299503,44.648044 C53.6745379,44.5642811 53.6165482,44.4805182 53.5598472,44.396111 C53.1049503,43.71441 47.6249245,37.2781986 47.4960585,37.1583533 C47.3439967,37.0185337 42.3549503,32.9824512 40.4689967,31.5088687 C39.211909,30.5256213 15.215775,10.2434048 13.2421925,7.88515738 C11.2679657,5.52690996 9.9006977,3.769178 9.15263069,3.26015738 C8.93871317,3.11453883 8.77505337,3.0707244 8.66229564,3.144178 C8.63845544,3.15964192 8.61976987,3.18477079 8.60301729,3.21440996 C7.73123894,4.74276048 16.6777596,24.6132502 28.5798214,36.9141522 C36.2209297,44.8123481 46.3787905,50.894178 49.092708,52.3039718 C51.1281462,53.3619615 56.0727338,55.140312 58.416806,55.962477 C58.3755688,56.0964976 58.3890998,56.261446 58.4934812,56.4341265 C59.4322699,57.9856728 60.4045637,59.4940491 61.3923214,61.0095131 C61.8510843,61.7131213 62.3079142,62.4160852 62.7660328,63.1184048 C61.4232493,62.0842553 59.2950276,60.5900543 56.7312389,59.2330955 C56.5534039,59.1390234 56.3723472,59.0455955 56.1906462,58.9534564 C56.1468317,58.9309048 56.104306,58.9083533 56.0604915,58.886446 C55.9947699,58.8529409 55.9277596,58.8213687 55.8613936,58.7891522 C55.3272441,58.5236883 53.1062389,57.5720131 52.9290482,57.5050027 C52.8729915,57.4837399 40.6803369,55.2537141 39.5314967,55.1119615 C38.6693833,55.0056471 28.3749245,53.7015234 28.1848472,53.6751058 C27.4271152,53.5687914 25.3833008,53.2330955 25.2067544,53.1950801 C22.1603627,52.5462399 19.465775,51.6325801 17.3691255,50.8722708 C15.2731204,50.1106728 13.7756977,49.5037141 13.1236358,49.466343 C12.9367802,49.4553893 12.8201565,49.4921161 12.7776307,49.5848997 C12.7686101,49.6042295 12.7660328,49.6280698 12.7666771,49.653843 C12.7930946,50.9972708 25.6951565,60.4463687 37.6229915,63.7794873 C45.280208,65.9193069 53.8227338,65.8767811 56.0256977,65.7247192 C57.8195121,65.6010079 62.0508266,64.6763945 63.5598472,64.337477 C66.1249245,68.2781986 68.6796925,72.2240749 71.2144864,76.1841265 C69.6275018,75.1802605 67.1726049,73.7743326 64.2930946,72.5636368 C64.1526307,72.5037141 64.0108781,72.4444357 63.8678369,72.3858017 C63.8008266,72.3587399 63.7325276,72.331678 63.6655173,72.3046161 C63.4651307,72.2240749 63.2647441,72.144178 63.0604915,72.0662141 C60.8820121,71.2298739 58.4992802,70.5410852 56.086909,70.2388945 C56.0759554,70.2376058 56.0662905,70.2363172 56.0553369,70.2350285 C55.8034039,70.2034564 55.5501822,70.1770388 55.2963163,70.1544873 L55.2286616,70.1493326 C54.9812389,70.1274254 54.7344606,70.1106728 54.4876822,70.0977863 C54.4644864,70.0971419 54.4425791,70.0964976 54.4200276,70.0958533 C54.1674503,70.0842553 53.9161616,70.075879 53.6642286,70.0745904 C52.1970895,70.0655698 50.6429657,70.0655698 49.0540482,70.0707244 C46.5115224,70.0803893 43.8775018,70.1035852 41.3601049,70.1254924 C41.0443833,70.1280698 40.7318833,70.1306471 40.4213163,70.1332244 C38.2467029,70.15191 17.0295637,67.9437914 16.3903884,67.7897966 C16.2151307,67.7479151 14.911007,67.466343 14.5765998,67.4360594 C14.1436101,67.3967553 13.8910328,67.4483017 13.8459297,67.6280698 C13.5070121,68.9882502 29.7434812,78.8168584 43.7112647,81.0243326 C52.5095895,82.4154409 61.8820121,80.9901832 64.2737647,80.450879 C66.157141,80.0262656 70.4039194,78.3175027 72.1255688,77.6106728 C74.8433523,81.8703378 77.5334297,86.1506213 80.1816255,90.4637656 C78.5269864,89.5900543 75.5327853,88.1770388 71.9387132,87.0791007 C71.7847183,87.0320646 71.6300791,86.9850285 71.4747956,86.9392811 C71.4019864,86.9180182 71.3278884,86.8973997 71.2550791,86.8761368 C68.7144864,86.1428893 60.7054657,85.5552605 60.4342029,85.5784564 C59.8021152,85.6319357 57.3349761,85.8529409 56.9986358,85.8838687 C56.3253111,85.9457244 50.971574,86.4611883 50.278275,86.5294873 C49.9316255,86.5636368 44.3613936,87.1164718 43.7222183,87.1789718 C43.5624245,87.1950801 43.4026307,87.210544 43.2447699,87.2260079 C42.971574,87.2524254 38.9670637,87.6332244 38.8323987,87.6454667 C37.7583008,87.7427605 36.7776307,87.827812 35.9187389,87.894178 C35.7041771,87.9109306 35.4973472,87.9263945 35.2976049,87.9405698 C34.3021152,88.0127347 33.5076565,88.0552605 32.967708,88.0584821 C31.3665482,88.0707244 26.7505688,87.7543584 26.3046925,87.7073223 C25.8588163,87.6596419 24.1784039,87.4541007 23.7866513,87.4012656 C23.0018575,87.2955955 20.9747956,86.9992038 20.6796925,86.9573223 C18.7634554,86.6854151 17.6030173,86.573946 17.5076565,86.9818069 C17.1758266,88.4044873 34.8942544,96.8555182 49.9838163,97.7421161 C59.4896152,98.3007502 69.5463163,95.9257502 72.1068833,95.140312 C74.217708,94.4934048 79.0778884,92.1577089 80.7260843,91.3542295 C82.1217029,93.6345131 83.5095895,95.9212399 84.8775018,98.2227863 C87.16294,102.07008 89.4142286,105.939281 91.6352338,109.827168 C89.9400018,108.831678 86.3530173,106.934126 81.9458008,105.455389 C81.7731204,105.3974 81.5997956,105.340054 81.4245379,105.283353 C81.342708,105.256936 81.2608781,105.231163 81.1790482,105.205389 C78.3298214,104.298817 71.9122956,103.42124 71.9000534,103.420596 C71.590775,103.405776 70.286007,103.385802 69.9838163,103.391601 C69.9567544,103.392245 69.9296925,103.393534 69.9026307,103.394178 C69.594641,103.40191 65.6642286,103.650621 63.9245379,103.774333 C63.7312389,103.788508 57.1558523,104.27691 56.7164194,104.311059 C56.4180946,104.333611 56.1204142,104.356163 55.8233781,104.379358 C55.7151307,104.387735 22.840775,103.789152 22.5714451,103.751137 C22.3497956,103.719565 20.965775,103.615827 20.776342,103.644178 C20.7131977,103.653199 20.6564967,103.665441 20.6062389,103.680905 C20.5553369,103.696369 20.5121668,103.71441 20.4747956,103.736317 C20.401342,103.780132 20.354306,103.836833 20.3356204,103.908353 C19.9064967,105.528199 39.6468317,115.67124 56.6945121,117.084255 C67.4342029,117.974719 78.9058523,115.521111 81.8343317,114.688637 C84.3717029,113.967632 90.4232493,111.189281 91.9960585,110.459255 C95.604306,116.785286 99.1255688,123.165441 102.55727,129.59392 C100.374925,128.273044 81.2228627,121.168018 71.1390998,121.608096 C70.6990224,121.626781 59.9103627,122.640956 59.6320121,122.668018 C59.1816255,122.711188 49.8265998,123.595209 49.4400018,123.630003 C49.0527596,123.665441 43.4155173,124.137735 43.2692544,124.148044 C42.977373,124.169307 40.157141,124.331678 39.963842,124.338121 C39.5753111,124.351008 18.4045637,120.778199 18.2583008,122.303972 C18.0514709,124.465054 42.9528884,137.822657 63.1217029,139.571369 C75.8272441,140.673173 88.780208,137.313637 92.0495379,136.182193 C94.8304657,135.220209 101.206754,131.588766 103.053404,130.523688 C104.126213,132.539797 105.193223,134.558482 106.247992,136.584255 C109.004435,141.879358 111.699667,147.206678 114.336909,152.561704 C111.640388,150.994049 99.1848472,145.914797 99.1848472,145.914797 C95.5656462,144.830389 91.7099761,144.084255 87.9818833,144.099075 C87.9664194,144.099075 85.9103627,144.186059 85.5372956,144.224075 C85.5031462,144.227297 67.8762132,147.216987 67.403275,147.302039 C66.4593317,147.470853 58.7434812,148.846498 58.4902596,148.891601 C56.229306,149.287219 44.0327853,150.793018 42.9361358,150.783353 C35.2583008,150.71441 28.6829142,149.188637 25.66294,149.015956 C25.5192544,149.00758 25.3839451,149.002425 25.2557235,149.000492 C24.8742802,148.995982 24.5669348,149.020467 24.3414194,149.083611 C24.041806,149.168663 23.8871668,149.321369 23.8961874,149.562992 C23.9960585,152.294951 52.5585585,167.376781 74.3472183,168.187992 C88.0733781,168.698302 101.401342,163.583611 104.723507,161.936059 C107.368481,160.624204 113.032141,156.153199 115.231239,154.384513 C118.742837,161.560415 122.150053,168.785286 125.439357,176.058482 C125.729306,176.69959 126.017966,177.340699 126.305981,177.981807 C124.373636,177.06557 120.716419,175.521111 116.459976,174.448302 C116.28343,174.403199 116.105595,174.359384 115.927115,174.316214 C115.845285,174.296884 115.763455,174.277554 115.680981,174.258869 C112.78794,173.578456 105.96062,173.323302 105.669383,173.348431 C105.642966,173.350364 105.617193,173.352941 105.590775,173.355518 C105.30727,173.381291 102.134589,173.900621 101.267966,174.063637 C101.094641,174.095853 94.2937389,175.408998 93.7505688,175.516601 C93.2505688,175.614539 76.0798214,178.853585 75.9251822,178.874848 C75.6146152,178.915441 58.3510843,177.722142 58.348507,178.969565 C58.344641,180.735673 79.3381977,189.553327 95.6603627,189.350364 C105.942579,189.222786 116.088198,185.463121 118.627502,184.284642 C120.756368,183.296884 122.497347,181.867116 124.280852,180.419307 C127.271187,177.993405 131.632012,177.512735 135.338842,176.101652" id="Fill-1" fill="#83933E" transform="translate(88.710995, 93.176906) rotate(-5.000000) translate(-88.710995, -93.176906) "></path>
        <path d="M166.710196,242.745631 L166.702464,242.734033 C162.132876,234.978878 157.637386,227.14576 153.371922,219.223079 C151.241768,215.259162 149.152206,211.27978 147.182489,207.26045 C145.226948,203.245631 143.331974,199.165734 142.036871,195.084548 C140.584551,190.58326 138.786226,186.42862 136.955041,182.252074 C136.110324,180.345502 135.242412,178.454394 134.366768,176.567796 C134.733391,176.343569 135.108391,176.132229 135.462773,175.892538 L136.611613,175.1071 C137.369989,174.574239 138.161871,174.083904 138.88352,173.507229 L141.085196,171.821017 L143.199886,170.038801 C143.914448,169.455682 144.576175,168.817151 145.259809,168.201816 C145.943443,167.586481 146.618701,166.963414 147.259809,166.306198 C148.578108,165.027847 149.837129,163.694729 151.090995,162.360321 L152.912515,160.306198 L154.685711,158.213414 C157.004654,155.38094 159.199242,152.479522 161.180556,149.371919 C161.408005,149.014961 161.336484,148.535579 160.9995,148.263672 C160.636742,147.97179 160.107103,148.029136 159.815221,148.391249 L159.79718,148.413801 C155.312644,153.975656 150.420891,159.284935 145.156716,164.078749 C142.511742,166.462126 139.801046,168.772693 136.915092,170.811352 C136.217283,171.358388 135.462129,171.811997 134.736613,172.311997 L133.638031,173.046533 C133.403495,173.202461 133.161226,173.343569 132.918314,173.484033 C132.353881,172.287512 131.79267,171.089703 131.223082,169.896404 C128.929268,165.118053 126.589706,160.367409 124.224371,155.63094 C127.427335,152.689574 130.574886,149.692151 133.529139,146.511739 C135.273984,144.725012 136.903495,142.833904 138.576175,140.9821 L141.000144,138.133517 L142.20633,136.705038 L143.377721,135.247564 C146.522696,131.380296 149.505943,127.38545 152.337129,123.288801 C155.172824,119.185708 157.865479,115.019471 160.322309,110.636095 C160.563288,110.204394 160.418314,109.654136 159.991123,109.40027 C159.555556,109.141894 158.993701,109.284935 158.735324,109.719857 L158.720505,109.744986 C156.226304,113.942151 153.434422,118.035579 150.534938,122.007229 C147.632876,125.985321 144.584551,129.857744 141.38352,133.594857 L140.192154,135.002718 L138.965995,136.381584 L136.505299,139.129007 C134.811355,140.90929 133.161226,142.730811 131.398984,144.444084 C128.619345,147.288801 125.683134,149.96728 122.700531,152.584548 C121.522051,150.239832 120.339706,147.897048 119.150273,145.558131 C116.868701,141.061997 114.557489,136.589059 112.219216,132.127074 C113.533005,130.560064 114.853237,128.997564 116.135453,127.405425 L118.580685,124.312641 L119.799113,122.764961 L120.979525,121.186997 L123.339706,118.031713 L125.622567,114.821662 C127.165737,112.696662 128.587129,110.485966 130.060067,108.314574 C132.916381,103.908002 135.642541,99.4208884 138.17218,94.8223059 C140.688288,90.2134142 143.06651,85.5484657 145.045891,80.6457596 C145.158005,80.3667647 145.031072,80.0458884 144.75401,79.9228214 C144.470505,79.7965328 144.138675,79.9234657 144.012386,80.2069709 L144.002077,80.2301668 C141.899629,84.9473059 139.36419,89.5233369 136.714062,93.9878987 C134.048469,98.4531049 131.190221,102.801043 128.211484,107.058775 C126.676046,109.156713 125.194732,111.290734 123.594216,113.339059 L121.224371,116.431842 L118.781716,119.466636 L117.561355,120.982744 L116.302979,122.469213 L113.781072,125.436997 C112.732747,126.647048 111.661226,127.838414 110.588417,129.027847 C109.260453,126.511095 107.926046,123.995631 106.576819,121.482744 C104.761098,118.184419 102.887386,114.946662 100.991123,111.7321 C103.103881,108.602589 105.086484,105.40478 106.955685,102.152203 C109.063933,98.4150895 111.071665,94.6322286 112.965995,90.7971771 C114.851948,86.9589039 116.653495,83.0845482 118.370634,79.1753987 C120.083263,75.2617389 121.726304,71.3293936 123.254654,67.3339039 C123.356458,67.0671513 123.231458,66.7623833 122.96535,66.6470482 C122.692799,66.5284915 122.3745,66.6541358 122.256587,66.9273317 L122.253366,66.9344194 C120.565221,70.8216616 118.751433,74.6721771 116.878366,78.4814554 C115.000144,82.2900895 113.040737,86.0555534 111.00401,89.7739812 C108.959551,93.4885431 106.809422,97.1373833 104.572309,100.721146 C102.850015,103.432486 101.056201,106.090347 99.1812007,108.675399 C97.0484688,105.112254 94.886742,101.574239 92.7153502,98.0362235 C91.9518193,96.8055534 91.1766904,95.5826152 90.4099378,94.3532338 C92.1373863,91.6393163 93.4582626,88.7752699 94.6457626,85.8873833 C96.0336492,82.5091616 97.1199894,79.0510431 98.1148347,75.5800379 C99.1096801,72.1070998 99.9460203,68.6019451 100.690221,65.0813266 C101.429268,61.5561977 102.089706,58.0342905 102.60968,54.4537492 C102.678623,53.9711462 102.354525,53.5143163 101.870634,53.4266874 C101.376433,53.3364812 100.901562,53.6650895 100.812644,54.1599348 L100.810067,54.1741101 C100.177335,57.6528472 99.3944739,61.1406049 98.5426698,64.5877699 C97.6850667,68.0375121 96.7372574,71.4640585 95.6412523,74.8313266 C94.5465358,78.1973059 93.3635461,81.5368678 91.9157368,84.7282338 C90.8925409,86.992409 89.7772059,89.2185688 88.4859688,91.2817132 C85.1721801,85.998208 81.8435719,80.7256565 78.4937007,75.4685688 C79.318443,72.3119967 80.0755306,69.1457596 80.7179275,65.9627699 C81.382876,62.6573575 81.9943451,59.3467905 82.505943,56.0233369 C83.0272059,52.7018163 83.4898347,49.373208 83.888675,46.0388008 C84.2849378,42.7005276 84.630943,39.3706307 84.8912523,36.0072286 C84.9247574,35.558775 84.6000152,35.1580018 84.1502729,35.1045224 C83.687644,35.0491101 83.2681853,35.3796513 83.2134172,35.8422802 L83.2114842,35.8538781 C82.8197317,39.1489812 82.3377729,42.4582596 81.8074894,45.746275 C81.2746286,49.0368678 80.6799121,52.3158627 80.0291389,55.5813266 C79.386742,58.8474348 78.6470512,62.0909915 77.8583914,65.316507 C77.3255306,67.4872544 76.7379018,69.6406049 76.1154791,71.7797802 C73.0542677,67.0272029 69.9730822,62.2862235 66.8725667,57.5581307 C67.0748863,54.7320998 67.2552987,51.9073575 67.3583914,49.0826152 C67.4840358,45.9208884 67.564577,42.7617389 67.5890616,39.6038781 C67.6457626,33.2836462 67.5497574,26.9827441 67.2475667,20.6625121 C67.2250152,20.2095482 66.8493708,19.8493601 66.3906079,19.8493601 C65.9183141,19.8493601 65.5375152,20.2359657 65.5394481,20.7069709 L65.5394481,20.7198575 C65.5671543,26.9801668 65.3906079,33.2675379 65.0619997,39.5252699 C64.9022059,42.6554245 64.6863554,45.7817132 64.4266904,48.9009142 C64.3113554,50.3422802 64.1734688,51.7797802 64.0265616,53.2166358 C63.8319739,52.9228214 63.6418966,52.6264297 63.4466646,52.3326152 C63.3016904,52.1141874 63.1006595,51.9176668 62.8590358,51.7765585 L62.8551698,51.7739812 L62.8545255,51.7739812 C60.0323605,50.242409 57.3216646,48.3171513 54.6760461,46.3281049 C52.0259172,44.3332596 49.4556853,42.2018163 46.9266904,40.0201152 C44.3944739,37.8416358 41.9105822,35.5967905 39.4653502,33.3094194 C37.0214069,31.0233369 34.5974378,28.6979503 32.2456337,26.3313266 L32.2372574,26.3235946 C31.8815873,25.9666358 31.3042677,25.9518163 30.9305564,26.2971771 C30.5478244,26.6502699 30.5246286,27.2469194 30.8777213,27.6296513 C33.1766904,30.1161204 35.5188296,32.5310688 37.8989842,34.9260431 C40.2778502,37.31844 42.699242,39.6721771 45.1824894,41.9698575 C47.6612265,44.2701152 50.1882884,46.5265585 52.8339069,48.6721771 C55.3622574,50.7172802 57.951175,52.7050379 60.8139327,54.4389297 L63.5104533,58.8158627 C63.5942162,59.183775 63.7946028,59.5098059 64.0819739,59.7430534 L65.1592935,61.4917647 C63.4099378,61.3023317 61.6631595,61.1006565 59.9196028,60.8628987 C57.0562007,60.4917647 54.2069739,60.0284915 51.3609688,59.5381565 C48.5188296,59.0252699 45.6863554,58.4608369 42.8719224,57.81844 C40.0652213,57.1734657 37.2404791,56.4672802 34.5272059,55.6238523 L34.498211,55.6148317 C34.0317162,55.4705018 33.5297832,55.7179245 33.3629018,56.1824864 C33.19151,56.6605791 33.439577,57.1869967 33.9170255,57.3577441 C36.7153502,58.3622544 39.5033657,59.1850637 42.3306853,59.9672802 C45.1541389,60.7411204 47.996278,61.4363523 50.8513038,62.0800379 C53.7101956,62.7011719 56.5774636,63.2952441 59.4608399,63.7971771 C62.0813296,64.2707596 64.7140616,64.6721771 67.3513038,65.0516874 L73.0278502,74.2675379 C70.6644481,74.5600637 68.2726956,74.7398317 65.8687007,74.8326152 C62.6734688,74.9195998 59.4634172,74.8880276 56.2507884,74.7359657 C53.0400925,74.5697286 49.8274636,74.310708 46.6219224,73.9576152 C43.4215358,73.6006565 40.2082626,73.1676668 37.0523347,72.6116101 L37.0342935,72.6090328 C36.6006595,72.5330018 36.1792677,72.8119967 36.0839069,73.246275 C35.9846801,73.69344 36.2668966,74.1354503 36.7134172,74.2346771 C39.9208914,74.94344 43.1199894,75.5162492 46.3480822,76.0194709 C49.574242,76.5168936 52.81651,76.9208884 56.0748863,77.2314554 C59.3351956,77.5284915 62.6116131,77.7037492 65.9034945,77.7572286 C68.8983399,77.7714039 71.9060719,77.6470482 74.9221801,77.3435688 C77.136742,80.929909 79.3435719,84.5214039 81.5413811,88.117409 C79.3358399,88.4311977 77.1296543,88.748208 74.9215358,89.0420224 C71.7830049,89.4543936 68.6373863,89.8583884 65.5065873,90.1721771 C62.3822317,90.4820998 59.2288811,90.6567132 56.0716646,90.7630276 C52.9163811,90.8628987 49.7443451,90.9009142 46.5916389,90.8519451 L46.5819739,90.8519451 C46.2043966,90.8467905 45.884809,91.1380276 45.8603244,91.5188266 C45.8339069,91.9118678 46.1322317,92.252074 46.5259172,92.2778472 C49.7166389,92.4885431 52.8938296,92.6103214 56.0871286,92.6702441 C59.2772059,92.7230791 62.4737265,92.7082596 65.6812007,92.5529761 C68.8815873,92.3938266 72.0523347,92.1476925 75.2269481,91.8931822 C77.9524636,91.6695998 80.6728244,91.4228214 83.3964069,91.1683111 C85.255943,94.2205018 87.1141904,97.2733369 88.9543966,100.334548 C90.4047832,102.738543 91.8577471,105.145115 93.3016904,107.556842 C89.8957626,108.163156 86.4685719,108.689574 83.007876,108.972435 C80.8532368,109.22179 78.683778,109.290089 76.5181853,109.43893 C74.3493708,109.490476 72.1773347,109.599368 70.00401,109.561352 C65.6567162,109.565218 61.3036234,109.365476 56.9672832,108.965992 C52.6360976,108.570373 48.2894481,108.004007 44.0497574,107.145115 L44.0252729,107.139961 C43.687644,107.072306 43.3545255,107.282357 43.2720512,107.619342 C43.187644,107.965347 43.4002729,108.31393 43.7456337,108.398337 C48.0594224,109.449239 52.3918966,110.184419 56.7681853,110.757873 C61.1393193,111.334548 65.5400925,111.709548 69.9537523,111.879651 C72.1599378,112.004007 74.3699894,111.980811 76.5819739,112.013672 C78.7920255,111.949239 81.0072317,111.964059 83.2172832,111.797821 C87.1927987,111.627718 91.1509172,111.14576 95.1013038,110.576816 C97.6715358,114.908002 100.188933,119.256584 102.568443,123.636095 C103.25852,124.927976 103.942154,126.235966 104.626433,127.539445 C102.485969,128.181198 100.253366,128.639316 97.9949894,128.985321 C95.4176698,129.377074 92.8042677,129.633517 90.1792677,129.809419 C84.9215358,130.132229 79.6225667,130.136739 74.324242,129.964703 C69.0259172,129.783646 63.7243708,129.434419 58.4324894,128.950528 C53.1451183,128.463414 47.8474378,127.868053 42.6064585,127.109033 L42.5909945,127.1071 C42.0581337,127.030425 41.558778,127.393827 41.4698605,127.927976 C41.3796543,128.469213 41.7456337,128.981455 42.2868708,129.071017 C47.5839069,129.953105 52.875144,130.661868 58.197309,131.265605 C63.5156079,131.86612 68.8525925,132.331971 74.2082626,132.629007 C79.564577,132.917022 84.94151,133.028492 90.3384172,132.812641 C93.0362265,132.68893 95.7398347,132.483388 98.4440873,132.13094 C101.036226,131.788156 103.63352,131.314574 106.208263,130.551043 C107.088417,132.24112 107.966639,133.933131 108.842928,135.621275 L115.067799,147.64576 C115.681201,148.840347 116.290092,150.036868 116.900273,151.232744 C112.357103,152.359033 107.682489,153.274626 103.020763,154.017538 C97.5677987,154.892538 92.0710203,155.513672 86.5581337,155.902847 C83.8029791,156.139316 81.0407368,156.203105 78.2784945,156.329394 L74.132876,156.368053 L72.0594224,156.379651 L69.9879018,156.322306 C68.6058141,156.279136 67.2230822,156.25594 65.8422832,156.197306 L61.7050409,155.917022 C61.0162523,155.866765 60.3248863,155.831971 59.636742,155.769471 L57.5768193,155.538801 L53.4543966,155.078749 L53.4144481,155.074883 C52.9647059,155.024626 52.5549121,155.342925 52.4930564,155.793311 C52.4305564,156.25143 52.7507884,156.673466 53.2089069,156.735966 L57.3687007,157.305553 L59.449242,157.591636 C60.1438296,157.672821 60.8416389,157.725012 61.5381595,157.793955 L65.7205049,158.181842 C67.1167677,158.275914 68.5156079,158.335193 69.9131595,158.413801 L72.0104533,158.524626 L74.1096801,158.565863 L78.3100667,158.63094 C81.1083914,158.574239 83.9112265,158.578105 86.7069739,158.40929 C92.3023347,158.155425 97.888675,157.665089 103.444732,156.915734 C108.476304,156.239187 113.445376,155.406069 118.447309,154.266894 C121.410582,160.103234 124.335196,165.957615 127.187,171.839703 C127.798469,173.109033 128.406716,174.379651 129.012386,175.65027 L127.944732,176.12643 C124.762386,177.436352 121.327464,178.298466 117.85968,179.009806 C114.379654,179.697306 110.840995,180.187641 107.283649,180.578749 C100.168958,181.322306 92.9563296,181.708904 85.7830049,181.791378 L85.755943,181.791378 C85.257876,181.79911 84.8397059,182.188285 84.8062007,182.694084 C84.7707626,183.226945 85.1734688,183.688285 85.7063296,183.723079 C92.9943451,184.211481 100.271407,184.198595 107.56651,183.647693 C109.388675,183.507873 111.21084,183.329394 113.031716,183.11161 C114.851948,182.875141 116.670247,182.6071 118.484036,182.275914 C122.112902,181.61612 125.726948,180.696662 129.250788,179.274626 L130.469861,178.73661 C131.298469,180.506584 132.117412,182.279136 132.914448,184.058131 C134.763031,188.131584 136.596794,192.272048 137.967283,196.362254 C139.465995,200.884806 141.460196,204.999497 143.502721,209.082615 C145.567799,213.149626 147.697953,217.165734 149.937644,221.113543 C154.407361,229.016249 159.018185,236.802332 163.851304,244.48661 C164.331974,245.248852 165.33584,245.497564 166.117412,245.037512 C166.913804,244.567796 167.179268,243.541378 166.710196,242.745631" id="Fill-4" fill="#57651E" transform="translate(98.784718, 132.559000) rotate(-5.000000) translate(-98.784718, -132.559000) "></path>
    </g>
</svg>